<svg width="43" height="88" viewBox="0 0 43 88" fill="none" xmlns="http://www.w3.org/2000/svg">
<path d="M42.334 43.0811C42.334 44.4092 40.8952 45.9172 38.0176 47.605C37.7132 51.9214 37.0353 54.0796 35.9839 54.0796C31.7505 50.0952 28.5962 48.103 26.521 48.103C26.77 50.6763 28.8452 53.7614 32.7466 57.3584C32.7466 58.0778 31.4046 58.7004 28.7207 59.2261C26.9222 59.5858 25.2897 59.7933 23.8232 59.8486C20.1986 70.778 14.6785 79.1756 7.26318 85.0415C4.85596 86.9507 3.1543 87.9053 2.1582 87.9053C1.57715 87.9053 1.28662 87.6147 1.28662 87.0337C1.28662 86.757 2.29655 85.4842 4.31641 83.2153C6.80664 80.3931 8.85417 77.5155 10.459 74.5825C12.8939 70.1278 14.5402 65.0781 15.3979 59.4336C12.631 58.9632 11.2476 58.3407 11.2476 57.5659C15.1489 53.6092 17.0996 50.5379 17.0996 48.3521C15.0798 48.3521 12.1053 50.3996 8.17627 54.4946C7.51221 54.4946 6.91732 53.4985 6.3916 51.5063C6.00423 50.0122 5.78288 48.7394 5.72754 47.688C2.76693 46.1385 1.28662 44.755 1.28662 43.5376C1.28662 42.4862 2.67008 41.1442 5.43701 39.5117C5.7137 35.1123 6.48844 32.9126 7.76123 32.9126L10.5835 35.6104C12.548 37.4919 14.6647 38.5433 16.9336 38.7646C16.9336 36.3021 14.8861 33.1616 10.791 29.3433C10.791 28.7069 12.299 28.0843 15.3149 27.4756C14.4295 22.9932 12.6587 18.3862 10.0024 13.6548C7.26318 8.78499 4.21956 4.9113 0.871582 2.03369C0.290527 1.53564 0 1.0791 0 0.664062C0 0.221354 0.345866 0 1.0376 0C3.14046 0 6.30859 2.0752 10.542 6.22559C16.1035 11.6764 20.4476 18.5799 23.5742 26.936C29.3571 27.019 32.2485 27.7938 32.2485 29.2603C28.4302 33.2446 26.521 36.3298 26.521 38.5156C28.8729 38.5156 31.8473 36.4681 35.4443 32.373C36.4958 32.373 37.2705 34.6419 37.7686 39.1797C40.8122 40.6738 42.334 41.9743 42.334 43.0811ZM29.1772 29.5923C29.1772 29.3433 27.9045 29.0804 25.3589 28.8037C24.6672 28.8037 23.6987 28.859 22.4536 28.9697C18.5799 17.0719 12.1191 8.17627 3.07129 2.28271C6.22559 5.18799 9.02018 8.75732 11.4551 12.9907C14.388 18.1095 16.2695 23.3805 17.0996 28.8037C14.8861 28.9974 13.7793 29.3156 13.7793 29.7583L15.564 31.46C17.0581 32.8711 18.1925 34.3652 18.9673 35.9424C20.0464 33.6735 20.9871 32.5391 21.7896 32.5391C22.8963 32.5391 23.8232 33.6735 24.5703 35.9424C25.262 34.2546 26.272 32.7051 27.6001 31.2939L29.1772 29.5923ZM40.0513 43.0811C40.0513 42.4447 38.7785 41.6561 36.2329 40.7153C35.9285 37.2013 35.5827 35.4443 35.1953 35.4443C34.974 35.4443 34.2269 36.0946 32.9541 37.395C31.4876 38.8892 30.035 39.9129 28.5962 40.4663C31.1971 41.6284 32.4976 42.6522 32.4976 43.5376C32.4976 44.4784 31.2248 45.4053 28.6792 46.3184C29.4263 46.5674 30.533 47.4528 31.9995 48.9746C33.3 50.3304 34.4482 51.0083 35.4443 51.0083C35.9701 51.0083 36.2329 49.3896 36.2329 46.1523C38.7785 44.6582 40.0513 43.6344 40.0513 43.0811ZM27.1436 43.3716C27.1436 41.9051 26.6178 40.6738 25.5664 39.6777C24.515 38.6816 23.256 38.1836 21.7896 38.1836C20.3231 38.1836 19.0641 38.6816 18.0127 39.6777C16.9613 40.6738 16.4355 41.9051 16.4355 43.3716C16.4355 44.8381 16.9613 46.097 18.0127 47.1484C19.0641 48.1999 20.3231 48.7256 21.7896 48.7256C23.256 48.7256 24.515 48.1999 25.5664 47.1484C26.6178 46.097 27.1436 44.8381 27.1436 43.3716ZM15.0659 46.4014C12.4097 45.2946 11.0815 44.2847 11.0815 43.3716C11.0815 42.4032 12.3543 41.4624 14.8999 40.5493C12.9631 39.9129 11.3306 38.9445 10.0024 37.644L8.17627 35.8594C7.67822 35.8594 7.4292 37.478 7.4292 40.7153C4.85596 42.1541 3.56934 43.1779 3.56934 43.7866C3.56934 44.506 4.85596 45.2946 7.4292 46.1523C7.73356 49.6663 8.06559 51.4233 8.42529 51.4233C8.67432 51.4233 9.43522 50.7731 10.708 49.4727C12.2021 47.9508 13.6548 46.9271 15.0659 46.4014ZM29.5923 56.8604L27.9736 55.2417C26.5902 53.8582 25.5111 52.4194 24.7363 50.9253C23.5465 53.1942 22.5366 54.3286 21.7065 54.3286C21.1532 54.3286 20.2401 53.1942 18.9673 50.9253C18.3862 52.3918 17.4178 53.8306 16.062 55.2417L14.2773 57.1094C14.2773 57.4137 14.7062 57.6489 15.564 57.8149C15.8407 57.8703 16.4632 57.981 17.4316 58.147C15.8545 64.8983 14.5125 69.5467 13.4058 72.0923C11.7733 75.8553 8.95101 80.1025 4.93896 84.834C12.6864 79.6045 18.6076 70.6258 22.7026 57.8979C27.2957 57.6766 29.5923 57.3307 29.5923 56.8604Z" fill="white"/>
</svg>
