<svg width="750" height="460" viewBox="0 0 750 460" fill="none" xmlns="http://www.w3.org/2000/svg">
<g style="mix-blend-mode:multiply" opacity="0.2">
<path d="M375.129 459.239C553.906 459.239 698.835 425.456 698.835 383.783C698.835 342.109 553.906 308.326 375.129 308.326C196.351 308.326 51.4227 342.109 51.4227 383.783C51.4227 425.456 196.351 459.239 375.129 459.239Z" fill="#042030"/>
</g>
<path d="M628.643 19.6336L375.129 106.422L121.358 19.6336L0 196.3L375.129 324.808L750 196.3L628.643 19.6336Z" fill="#4E2999"/>
<path opacity="0.45" d="M44.2235 189.089L355.331 308.326L248.372 202.223C248.372 202.223 72.7631 159.73 44.2235 189.089Z" fill="#240F4F"/>
<path opacity="0.45" d="M706.034 189.089L394.926 308.326L501.885 202.223C501.628 202.223 677.237 159.73 706.034 189.089Z" fill="#240F4F"/>
<path d="M375.129 324.808L0 196.3V213.039L375.129 341.548L750 213.039V196.3L375.129 324.808Z" fill="#994EF8"/>
<path d="M175.351 402.067L218.804 287.981L358.673 335.882L175.351 402.067Z" fill="#3B1E77"/>
<path opacity="0.45" d="M187.436 369.103L358.673 335.882L218.804 287.981L187.436 369.103Z" fill="#3B1E77"/>
<path d="M375.129 329.959L175.351 402.067L190.264 417.777L375.129 351.849L559.736 417.777L574.906 402.067L375.129 329.959Z" fill="#994EF8"/>
<path d="M574.906 402.067L531.197 287.981L391.327 335.882L574.906 402.067Z" fill="#3B1E77"/>
<path opacity="0.45" d="M562.564 369.103L391.327 335.882L531.196 287.981L562.564 369.103Z" fill="#3B1E77"/>
<path d="M375.129 351.849C382.654 351.849 388.755 345.738 388.755 338.199C388.755 330.661 382.654 324.55 375.129 324.55C367.603 324.55 361.502 330.661 361.502 338.199C361.502 345.738 367.603 351.849 375.129 351.849Z" fill="white" fill-opacity="0.5"/>
<path d="M617.844 19.6336L375.129 140.673L132.413 19.6336C121.358 34.3129 32.3963 182.908 32.3963 182.908C33.4248 182.908 34.1961 183.166 35.2246 183.166C258.399 205.571 320.363 275.877 340.932 292.874C361.502 310.129 375.386 308.326 375.386 308.326C375.386 308.326 389.27 310.129 409.839 292.874C430.408 275.877 492.372 205.571 715.547 183.166C716.575 183.166 717.347 182.908 718.375 182.908C717.861 182.908 628.642 34.5704 617.844 19.6336Z" fill="#F5B304"/>
<path d="M717.861 182.908C716.832 182.908 716.061 183.166 715.033 183.166C491.858 205.571 429.894 275.877 409.325 292.874C388.756 310.129 374.871 308.326 374.871 308.326C374.871 308.326 360.987 310.129 340.418 292.874C319.849 275.877 257.885 205.571 34.7103 183.166C33.6819 183.166 32.9105 182.908 31.8821 182.908C30.0823 185.741 31.8821 187.801 31.8821 187.801C257.371 209.692 317.278 280.255 337.847 297.51C358.416 314.507 374.614 313.219 374.614 313.219C374.614 313.219 390.812 314.507 411.382 297.51C431.951 280.513 491.858 209.949 717.347 187.801C717.861 187.801 719.661 185.741 717.861 182.908Z" fill="#994EF8"/>
<path d="M608.588 5.46939C484.402 -24.4042 374.872 77.8356 374.872 77.8356C374.872 77.8356 265.341 -24.4042 141.155 5.46939C141.155 5.46939 105.931 59.5509 57.3363 151.489C57.3363 151.489 301.851 179.045 374.872 281.8C447.892 179.045 692.407 151.489 692.407 151.489C643.812 59.5509 608.588 5.46939 608.588 5.46939Z" fill="#F5EFFB"/>
<path d="M692.407 151.489C692.407 151.489 447.892 179.045 374.871 281.8C302.108 179.045 57.5934 151.489 57.5934 151.489C57.5934 151.489 57.5934 159.73 43.9664 175.955C43.9664 175.955 265.855 191.922 346.589 284.118C365.615 305.751 374.871 303.175 374.871 303.175C374.871 303.175 384.385 305.751 403.154 284.118C483.63 191.922 705.777 175.955 705.777 175.955C692.407 159.473 692.407 151.489 692.407 151.489Z" fill="#DFCBF4"/>
<path d="M594.704 16.2857C594.704 16.2857 501.886 -7.40722 374.872 91.2272C248.115 -7.14969 155.04 16.2857 155.04 16.2857L92.3038 138.355C283.082 151.49 374.872 248.064 374.872 248.064C374.872 248.064 466.661 151.49 657.439 138.355L594.704 16.2857ZM375.129 236.475C375.129 236.475 289.253 148.399 107.216 131.145L159.925 21.4363C159.925 21.4363 251.2 3.66665 375.129 96.8929C499.057 3.66665 590.333 21.4363 590.333 21.4363L643.041 131.145C461.005 148.399 375.129 236.475 375.129 236.475Z" fill="#863ED5"/>
<path opacity="0.2" d="M398.526 183.15C432.808 157.826 539.938 101.786 611.93 109.512" stroke="#863ED5" stroke-width="3" stroke-linecap="round"/>
<path opacity="0.2" d="M398.526 112.087C428.951 88.226 508.056 41.4743 581.077 45.3568" stroke="#863ED5" stroke-width="3" stroke-linecap="round"/>
<path opacity="0.2" d="M398.526 148.142C431.522 122.445 517.312 72.0968 596.503 76.278" stroke="#863ED5" stroke-width="3" stroke-linecap="round"/>
<path opacity="0.2" d="M354.817 183.15C320.535 157.826 213.404 101.786 141.412 109.512" stroke="#863ED5" stroke-width="3" stroke-linecap="round"/>
<path opacity="0.2" d="M354.817 112.087C324.392 88.226 245.286 41.4743 172.266 45.3568" stroke="#863ED5" stroke-width="3" stroke-linecap="round"/>
<path opacity="0.2" d="M354.817 148.142C321.82 122.445 236.03 72.0968 156.839 76.278" stroke="#863ED5" stroke-width="3" stroke-linecap="round"/>
<path d="M375.129 77.8356C375.129 77.8356 377.7 68.822 382.585 71.3973C382.585 71.3973 379.5 217.417 384.642 274.332C385.927 288.496 398.269 307.811 403.154 315.022H396.726L394.926 320.945C394.926 320.945 375.9 288.754 375.129 276.135C371.272 219.478 373.329 91.4848 375.129 77.8356Z" fill="#54DAF5"/>
</svg>
