<svg width="24" height="24" viewBox="0 0 24 24" fill="none" xmlns="http://www.w3.org/2000/svg">
<path d="M21.0001 8H3.00012C2.73491 8 2.48055 7.89464 2.29302 7.70711C2.10548 7.51957 2.00012 7.26522 2.00012 7C2.00012 6.73478 2.10548 6.48043 2.29302 6.29289C2.48055 6.10536 2.73491 6 3.00012 6H21.0001C21.2653 6 21.5197 6.10536 21.7072 6.29289C21.8948 6.48043 22.0001 6.73478 22.0001 7C22.0001 7.26522 21.8948 7.51957 21.7072 7.70711C21.5197 7.89464 21.2653 8 21.0001 8ZM17.0001 13H3.00012C2.73491 13 2.48055 12.8946 2.29302 12.7071C2.10548 12.5196 2.00012 12.2652 2.00012 12C2.00012 11.7348 2.10548 11.4804 2.29302 11.2929C2.48055 11.1054 2.73491 11 3.00012 11H17.0001C17.2653 11 17.5197 11.1054 17.7072 11.2929C17.8948 11.4804 18.0001 11.7348 18.0001 12C18.0001 12.2652 17.8948 12.5196 17.7072 12.7071C17.5197 12.8946 17.2653 13 17.0001 13ZM13.0001 18H3.00012C2.73491 18 2.48055 17.8946 2.29302 17.7071C2.10548 17.5196 2.00012 17.2652 2.00012 17C2.00012 16.7348 2.10548 16.4804 2.29302 16.2929C2.48055 16.1054 2.73491 16 3.00012 16H13.0001C13.2653 16 13.5197 16.1054 13.7072 16.2929C13.8948 16.4804 14.0001 16.7348 14.0001 17C14.0001 17.2652 13.8948 17.5196 13.7072 17.7071C13.5197 17.8946 13.2653 18 13.0001 18Z" fill="white"/>
</svg>
