<svg width="32" height="32" viewBox="0 0 32 32" fill="none" xmlns="http://www.w3.org/2000/svg">
<path d="M23.7512 4.21758L20.8641 5.40539L20.2997 4.07812L19.0188 4.22086C17.7336 4.36354 16.6143 4.84118 15.544 5.71044C14.4735 4.83905 13.3621 4.36184 12.0944 4.2208L10.8131 4.07812L10.2492 5.40539L7.36149 4.21758L1.94458 17.2173L5.17915 18.486V27.9215L15.5433 22.5918L25.9076 27.9215V18.4947L29.1687 17.2177L23.7512 4.21758ZM6.77367 25.2681V19.1119L13.5641 21.7762L6.77367 25.2681ZM14.7462 20.4844L4.06418 16.2933L8.2141 6.33415L9.60966 6.90864L6.04505 15.2935L14.7462 18.7352V20.4844ZM14.7462 16.9778L8.74125 14.6027C9.76706 14.0635 10.9853 13.9936 12.0971 14.4589L14.7462 15.6516V16.9778ZM14.7462 13.8614L12.7094 12.9446C11.4476 12.4133 10.0866 12.3767 8.85137 12.7856L11.8053 5.83835C11.9693 5.88134 13.2347 5.83988 14.7462 7.159V13.8614ZM16.3405 7.16004C17.8237 5.87215 19.2238 5.86039 19.308 5.83841L22.2497 12.7587C21.0857 12.3772 19.8202 12.4286 18.5941 12.9446L16.3405 13.8937V7.16004ZM16.3405 15.6659L19.1978 14.4626C20.2783 14.0073 21.4057 14.0669 22.3843 14.5961L16.3405 16.9795V15.6659ZM24.313 25.2681L17.5242 21.7768L24.313 19.1188V25.2681ZM16.3405 20.4855V18.7356L25.0682 15.2941L21.503 6.90864L22.8988 6.3342L27.0487 16.2929L16.3405 20.4855Z" fill="#8789A3"/>
</svg>
