<svg width="43" height="88" viewBox="0 0 43 88" fill="none" xmlns="http://www.w3.org/2000/svg">
<path d="M42.334 87.2827C42.334 87.6978 42.002 87.9053 41.3379 87.9053C39.2627 87.9053 36.0946 85.8162 31.8335 81.6382C26.2443 76.1597 21.9002 69.2562 18.8013 60.9277C13.0184 60.8447 10.127 60.0838 10.127 58.645C13.9176 54.6606 15.813 51.5755 15.813 49.3896C14.3465 49.3896 12.4927 50.3996 10.2515 52.4194L6.88965 55.4907C5.83822 55.4907 5.07731 53.2357 4.60693 48.7256C1.53564 47.2314 0 45.9172 0 44.7827C0 43.5099 1.45264 42.0158 4.35791 40.3003C4.66227 35.9839 5.34017 33.8257 6.3916 33.8257C10.625 37.8101 13.7655 39.8022 15.813 39.8022C15.6746 38.2528 14.6094 36.2329 12.6172 33.7427C10.625 31.2524 9.62891 30.1733 9.62891 30.5054C9.62891 29.8413 10.9709 29.2464 13.6548 28.7207C15.6193 28.3333 17.2518 28.112 18.5522 28.0566C22.1769 17.1273 27.6969 8.72965 35.1123 2.86377C37.5195 0.95459 39.2212 0 40.2173 0C40.7707 0 41.0474 0.318197 41.0474 0.95459C41.0474 1.20361 40.0374 2.46257 38.0176 4.73145C32.041 11.3997 28.361 19.3132 26.9775 28.4717C29.7445 28.9144 31.1279 29.5369 31.1279 30.3394C27.2266 34.2684 25.2759 37.3258 25.2759 39.5117C27.2681 39.5117 30.2425 37.478 34.1992 33.4106C34.8633 33.4106 35.4582 34.4067 35.9839 36.3989C36.3713 37.8654 36.5926 39.1382 36.6479 40.2173C39.5809 41.7391 41.0474 43.1226 41.0474 44.3677C41.0474 45.3914 39.6639 46.7196 36.897 48.3521C36.6756 52.7791 35.9147 54.9927 34.6143 54.9927L31.792 52.2949C29.8275 50.4134 27.7108 49.362 25.4419 49.1406C25.4419 50.8008 26.4657 52.793 28.5132 55.1172L31.543 58.562C31.543 59.1984 30.0488 59.821 27.0605 60.4297C27.946 64.9398 29.7168 69.5467 32.373 74.2505C35.0846 79.0926 38.1283 82.9663 41.5039 85.8716C42.0573 86.342 42.334 86.8123 42.334 87.2827ZM37.395 3.07129C29.703 8.27311 23.7817 17.2518 19.6313 30.0073C16.2557 30.1733 14.305 30.2979 13.7793 30.3809C13.0876 30.4915 12.7417 30.7129 12.7417 31.0449L14.3604 32.6221C15.7992 34.0055 16.8783 35.4582 17.5977 36.98C18.8428 34.7111 19.8665 33.5767 20.6689 33.5767C21.1947 33.5767 22.0939 34.7111 23.3667 36.98C23.6434 36.3159 24.5426 35.306 26.0645 33.9502C27.3926 32.7604 28.0566 31.6951 28.0566 30.7544C28.0566 30.45 27.6416 30.2287 26.8115 30.0903L24.9023 29.7583C26.5348 23.007 27.8906 18.3724 28.9697 15.8545C30.6022 12.0361 33.4106 7.77506 37.395 3.07129ZM38.7646 44.1187C38.7646 43.3993 37.4919 42.6107 34.9463 41.7529C34.6419 38.2389 34.2961 36.4819 33.9087 36.4819C33.6873 36.4819 32.9403 37.1322 31.6675 38.4326C30.2287 39.8991 28.776 40.909 27.3096 41.4624C29.9658 42.6245 31.2939 43.6483 31.2939 44.5337C31.2939 45.4468 30.0212 46.3875 27.4756 47.356C29.2741 47.9647 30.8927 48.9331 32.3315 50.2612L34.1992 52.0044C34.6973 52.0044 34.9463 50.3996 34.9463 47.1899C37.4919 45.7511 38.7646 44.7274 38.7646 44.1187ZM25.9399 44.5337C25.9399 43.0672 25.4142 41.8083 24.3628 40.7568C23.3114 39.7054 22.0524 39.1797 20.5859 39.1797C19.0918 39.1797 17.819 39.7054 16.7676 40.7568C15.7438 41.7806 15.2319 43.0396 15.2319 44.5337C15.2319 46.0002 15.7576 47.2314 16.8091 48.2275C17.8605 49.2236 19.1195 49.7217 20.5859 49.7217C22.0524 49.7217 23.3114 49.2236 24.3628 48.2275C25.4142 47.2314 25.9399 46.0002 25.9399 44.5337ZM13.7793 47.439C11.1784 46.2769 9.87793 45.2531 9.87793 44.3677C9.87793 43.4269 11.1507 42.5 13.6963 41.5869C12.9492 41.3379 11.8286 40.4525 10.3345 38.9307C9.00635 37.5749 7.85807 36.897 6.88965 36.897C6.3916 36.897 6.14258 38.5156 6.14258 41.7529C3.59701 43.1917 2.32422 44.2017 2.32422 44.7827C2.32422 45.4744 3.59701 46.2769 6.14258 47.1899C6.44694 50.7039 6.77897 52.4609 7.13867 52.4609C7.3877 52.4609 8.1486 51.8107 9.42139 50.5103C10.9155 48.9884 12.3682 47.9647 13.7793 47.439ZM39.2627 85.5811C36.1361 82.7588 33.3553 79.2171 30.9204 74.9561C27.9875 69.8372 26.106 64.5386 25.2759 59.0601C27.4618 58.8664 28.5547 58.562 28.5547 58.147L26.77 56.4453C25.3035 55.0618 24.1691 53.5539 23.3667 51.9214C22.3429 54.1903 21.416 55.3247 20.5859 55.3247C19.4792 55.3247 18.5384 54.1903 17.7637 51.9214C17.0719 53.5815 16.062 55.1449 14.7339 56.6113L13.1982 58.313C13.1982 58.5343 14.471 58.7834 17.0166 59.0601C17.7083 59.0601 18.6768 59.0047 19.9219 58.894C23.7126 70.8195 30.1595 79.7152 39.2627 85.5811Z" fill="white"/>
</svg>
